<svg xmlns="http://www.w3.org/2000/svg" viewBox="0 0 512 512">
  <rect width="512" height="512" rx="96" fill="#b4531f"/>
  <g transform="translate(96 96)">
    <rect x="0" y="0" width="96" height="96" rx="16" fill="#fbf8f3"/>
    <rect x="112" y="0" width="96" height="96" rx="16" fill="#fbf8f3" opacity="0.55"/>
    <rect x="224" y="0" width="96" height="96" rx="16" fill="#fbf8f3"/>
    <rect x="0" y="112" width="96" height="96" rx="16" fill="#fbf8f3" opacity="0.55"/>
    <rect x="112" y="112" width="96" height="96" rx="16" fill="#1d4ed8"/>
    <circle cx="160" cy="146" r="16" fill="#fbf8f3"/>
    <path d="M120 200 L148 164 L170 186 L186 170 L204 200 Z" fill="#fbf8f3"/>
    <rect x="224" y="112" width="96" height="96" rx="16" fill="#fbf8f3"/>
    <rect x="0" y="224" width="96" height="96" rx="16" fill="#fbf8f3"/>
    <rect x="112" y="224" width="96" height="96" rx="16" fill="#fbf8f3"/>
    <rect x="224" y="224" width="96" height="96" rx="16" fill="#fbf8f3" opacity="0.55"/>
  </g>
</svg>
